<svg width="14" height="14" viewBox="0 0 14 14" fill="none" xmlns="http://www.w3.org/2000/svg">
<path d="M0.5 7.08015H2.69C2.78221 7.07908 2.87248 7.05352 2.95156 7.00608C3.03063 6.95863 3.09567 6.89101 3.14 6.81015L4.94 3.21015C4.98436 3.12051 5.05509 3.0466 5.14268 2.99834C5.23027 2.95008 5.33053 2.92977 5.43 2.94015C5.52907 2.94684 5.62363 2.9841 5.70064 3.04678C5.77766 3.10947 5.83333 3.19449 5.86 3.29015L8.09 10.7101C8.11926 10.8108 8.17942 10.8997 8.26196 10.9643C8.34451 11.0289 8.44527 11.0659 8.55 11.0701C8.64814 11.0669 8.74315 11.0348 8.82318 10.9779C8.90321 10.921 8.9647 10.8418 9 10.7501L10.37 7.40015C10.4077 7.30617 10.4726 7.22556 10.5563 7.16857C10.64 7.11158 10.7387 7.0808 10.84 7.08015H13.5" stroke="black" stroke-linecap="round" stroke-linejoin="round"/>
</svg>
